<svg width="572" height="426" viewBox="0 0 572 426" fill="none" xmlns="http://www.w3.org/2000/svg">
<path d="M0 146H140C217.32 146 280 208.68 280 286V286C280 363.32 217.32 426 140 426H0V146Z" fill="#4F6F52"/>
<path d="M292 146H432C509.32 146 572 208.68 572 286V286C572 363.32 509.32 426 432 426H292V146Z" fill="#4F6F52"/>
<path d="M0 105.5C0 47.234 47.234 0 105.5 0V0C163.766 0 211 47.234 211 105.5V105.5C211 163.766 163.766 211 105.5 211H0V105.5Z" fill="#1A4D2E"/>
<path d="M292 105.5C292 47.234 339.234 0 397.5 0V0C455.766 0 503 47.234 503 105.5V105.5C503 163.766 455.766 211 397.5 211H292V105.5Z" fill="#1A4D2E"/>
</svg>
