<svg width="220" height="270" viewBox="0 0 220 270" fill="none" xmlns="http://www.w3.org/2000/svg">
<path d="M0 97H133.75C181.385 97 220 135.615 220 183.25V183.25C220 230.885 181.385 269.5 133.75 269.5H0V97Z" fill="#BA2121"/>
<path d="M0 91C0 52.8924 30.8924 22 69 22H107C145.108 22 176 52.8924 176 91V91C176 129.108 145.108 160 107 160H0V91Z" fill="#6C1717"/>
<path d="M22 69C22 30.8924 52.8924 0 91 0H129C167.108 0 198 30.8924 198 69V69C198 107.108 167.108 138 129 138H22V69Z" fill="#E93A3A"/>
</svg>
